<svg xmlns="http://www.w3.org/2000/svg" xmlns:xlink="http://www.w3.org/1999/xlink" width="52.159" height="52.159" viewBox="0 0 52.159 52.159"><defs><clipPath id="clip-path"><rect id="Mask" width="52.159" height="52.159" rx="26.079" fill="none"/></clipPath><linearGradient id="linear-gradient" x1="0.5" x2="0.5" y2="1" gradientUnits="objectBoundingBox"><stop offset="0" stop-color="#e2fbff"/><stop offset="1" stop-color="#ffe2cf"/></linearGradient><clipPath id="clip-path-2"><path id="Combined_Shape" d="M5.424,23.391v.073q-.03,2.293-3.808,3.449c3.035,2.235,6.071,4.025,9.106,4.025s6.071-1.782,9.106-4.025q-3.753-1.157-3.807-3.454V21.715c.181.026.166.009,0-.036,0-1.915.013-4.491.024-7.108,2.374-3.116,1.5-6.767.758-6.677C15.9,8.006,8,.414,6.482.027A5.65,5.65,0,0,0,.456,4.394c-.662,3.5-.939,12.318,1.572,15.847a3.246,3.246,0,0,0,3.377,1.177c0,.733,0,1.144.016,1.977Z" transform="translate(19.828 30.938) rotate(180)" fill="none"/></clipPath><linearGradient id="linear-gradient-2" x1="0.5" y1="1.177" x2="0.688" y2="-0.177" gradientUnits="objectBoundingBox"><stop offset="0" stop-color="#353b50"/><stop offset="1" stop-color="#232439"/></linearGradient><linearGradient id="linear-gradient-3" x1="0.5" y1="1" x2="0.5" gradientUnits="objectBoundingBox"><stop offset="0" stop-color="#29283e"/><stop offset="1" stop-color="#9cdae4"/></linearGradient><clipPath id="clip-path-3"><path id="Combined_Shape-2" d="M37.121,6.246C38.692,9.486,39.6,16.959,39.6,16.959H0S.9,9.485,2.475,6.246,13.216,0,13.216,0c1.76,3.683,11.467,3.683,13.16,0C26.376,0,35.551,3,37.121,6.246Z" fill="none"/></clipPath></defs><g id="user-pic" transform="translate(-0.085)"><g id="Group_30" transform="translate(0.085)"><g id="Group_21_Copy"><g id="Group_2"><g id="Path_7"><rect id="Mask-3" width="52.159" height="52.159" rx="26.079" fill="#353b50"/><g id="Path_7-2_Clipped" data-name="Path_7-2 Clipped"><rect id="Mask-2" data-name="Mask" width="52.159" height="52.159" rx="17.149" fill="none"/><g id="Path_7-2_Clipped-2" data-name="Path_7-2 Clipped" clip-path="url(#clip-path)"><g id="Path_7-2" transform="translate(6.281 9.187)"><g id="User_07a" transform="translate(0 0)"><g id="Group_10" transform="translate(6.443)"><g id="Group_11"><g id="Group_11-2" transform="translate(23.26 33.606) rotate(180)"><g id="Group_2-2" transform="translate(0)"><g id="Group_14"><g id="Path_48" transform="translate(0.777)"><path id="Combined_Shape-5" d="M5.424,23.391v.073q-.03,2.293-3.808,3.449c3.035,2.235,6.071,4.025,9.106,4.025s6.071-1.782,9.106-4.025q-3.753-1.157-3.807-3.454V21.715c.181.026.166.009,0-.036,0-1.915.013-4.491.024-7.108,2.374-3.116,1.5-6.767.758-6.677C15.9,8.006,8,.414,6.482.027A5.65,5.65,0,0,0,.456,4.394c-.662,3.5-.939,12.318,1.572,15.847a3.246,3.246,0,0,0,3.377,1.177c0,.733,0,1.144.016,1.977Z" transform="translate(19.828 30.938) rotate(180)" fill="url(#linear-gradient)"/><g id="Path_48-2_Clipped" data-name="Path_48-2 Clipped" transform="translate(0)"><path id="Combined_Shape-2-2" data-name="Combined_Shape" d="M5.424,23.391v.073q-.03,2.293-3.808,3.449c3.035,2.235,6.071,4.025,9.106,4.025s6.071-1.782,9.106-4.025q-3.753-1.157-3.807-3.454V21.715c.181.026.166.009,0-.036,0-1.915.013-4.491.024-7.108,2.374-3.116,1.5-6.767.758-6.677C15.9,8.006,8,.414,6.482.027A5.65,5.65,0,0,0,.456,4.394c-.662,3.5-.939,12.318,1.572,15.847a3.246,3.246,0,0,0,3.377,1.177c0,.733,0,1.144.016,1.977Z" transform="translate(19.828 30.938) rotate(180)" fill="none"/><g id="Path_48-2_Clipped-2" data-name="Path_48-2 Clipped" clip-path="url(#clip-path-2)"><g id="Path_48-2" transform="translate(8.445 7.511)"><path id="Path_48-3" d="M0,2.012A14.235,14.235,0,0,0,5.96,0,11.286,11.286,0,0,1,0,4.025Z" transform="translate(5.96 4.025) rotate(180)" fill="#ffbe94" opacity="0.228"/></g></g></g></g><path id="Path_22" d="M19.916,17.292c1.141-2.778,5.712-8.438,1.772-11.96C20.364-1.209,13.046-.484,8.161,1.025,4.878,2.039,2.4,4.043,1.871,2.535c-3.311,2.8-1.647,5.534.53,6.32a23.771,23.771,0,0,0,11.028.76c1.018-.12.8,3.041,1.348,3.377.815.506,1.445-2.713,3.691-1.74s.909,5.449-1.5,5.449c-.828,0-1.241,2.305.993,3.4C19.586,20.9,19.175,19.1,19.916,17.292Z" transform="translate(23.26 33.606) rotate(180)" fill="url(#linear-gradient-2)"/></g></g></g></g></g><g id="Group_21" transform="translate(0 28.703)"><path id="Combined_Shape-6" d="M37.121,6.246C38.692,9.486,39.6,16.959,39.6,16.959H0S.9,9.485,2.475,6.246,13.216,0,13.216,0c1.76,3.683,11.467,3.683,13.16,0C26.376,0,35.551,3,37.121,6.246Z" fill="url(#linear-gradient-3)"/><g id="Group_21-2_Clipped" data-name="Group_21-2 Clipped"><path id="Combined_Shape-2-3" data-name="Combined_Shape-2" d="M37.121,6.246C38.692,9.486,39.6,16.959,39.6,16.959H0S.9,9.485,2.475,6.246,13.216,0,13.216,0c1.76,3.683,11.467,3.683,13.16,0C26.376,0,35.551,3,37.121,6.246Z" fill="none"/><g id="Group_21-2_Clipped-2" data-name="Group_21-2 Clipped" clip-path="url(#clip-path-3)"><g id="Group_21-2" transform="translate(-1.65 5.525)"><path id="Combined_Shape-7" d="M0,6.691H42.9v1.34L0,8.035ZM0,3.345H42.9v1.34L0,4.69ZM0,1.339V0H42.9V1.339Z" transform="translate(0 0)" fill="#353b50"/></g></g></g></g></g></g></g></g></g></g></g></g></g></svg>